<svg width="17" height="17" viewBox="0 0 17 17" fill="none" xmlns="http://www.w3.org/2000/svg">
<path d="M16.182 15.4629L12.051 11.3979C13.1328 10.2226 13.7974 8.66829 13.7974 6.95788C13.7969 3.29901 10.7832 0.333332 7.06521 0.333332C3.34726 0.333332 0.333496 3.29901 0.333496 6.95788C0.333496 10.6168 3.34726 13.5824 7.06521 13.5824C8.67162 13.5824 10.145 13.0268 11.3023 12.1031L15.4493 16.184C15.6514 16.3831 15.9795 16.3831 16.1815 16.184C16.3841 15.985 16.3841 15.6619 16.182 15.4629ZM7.06521 12.5632C3.91942 12.5632 1.36926 10.0536 1.36926 6.95788C1.36926 3.86214 3.91942 1.35256 7.06521 1.35256C10.211 1.35256 12.7612 3.86214 12.7612 6.95788C12.7612 10.0536 10.211 12.5632 7.06521 12.5632Z" fill="white" stroke="white" stroke-width="0.666667"/>
</svg>
