<svg width="184" height="184" viewBox="0 0 184 184" fill="none" xmlns="http://www.w3.org/2000/svg">
<rect x="0.75" y="0.75" width="182.5" height="182.5" rx="91.25" stroke="#5A1186" stroke-width="1.5"/>
<rect x="5" y="5" width="174" height="174" rx="87" fill="#F6F7FF"/>
<path fill-rule="evenodd" clip-rule="evenodd" d="M68.4706 84.6471C67.6588 84.6471 67 83.9882 67 83.1765V77.2941C67 71.6176 71.6176 67 77.2941 67H83.1765C83.9882 67 84.6471 67.6588 84.6471 68.4706C84.6471 69.2824 83.9882 69.9412 83.1765 69.9412H77.2941C73.2412 69.9412 69.9412 73.2382 69.9412 77.2941V83.1765C69.9412 83.9882 69.2824 84.6471 68.4706 84.6471ZM115.529 84.6471C114.718 84.6471 114.059 83.9882 114.059 83.1765V77.2941C114.059 73.2382 110.759 69.9412 106.706 69.9412H100.824C100.012 69.9412 99.3529 69.2824 99.3529 68.4706C99.3529 67.6588 100.012 67 100.824 67H106.706C112.382 67 117 71.6176 117 77.2941V83.1765C117 83.9882 116.341 84.6471 115.529 84.6471ZM83.1765 90.5294C82.3647 90.5294 81.7059 89.8706 81.7059 89.0588V83.1765C81.7059 82.3647 82.3647 81.7059 83.1765 81.7059C83.9882 81.7059 84.6471 82.3647 84.6471 83.1765V89.0588C84.6471 89.8706 83.9882 90.5294 83.1765 90.5294ZM100.824 90.5294C100.012 90.5294 99.3529 89.8706 99.3529 89.0588V83.1765C99.3529 82.3647 100.012 81.7059 100.824 81.7059C101.635 81.7059 102.294 82.3647 102.294 83.1765V89.0588C102.294 89.8706 101.635 90.5294 100.824 90.5294ZM89.0588 96.4118C88.2471 96.4118 87.5882 95.7529 87.5882 94.9412C87.5882 94.1294 88.2471 93.4706 89.0588 93.4706C89.8706 93.4706 90.5294 92.8088 90.5294 92V83.1765C90.5294 82.3647 91.1882 81.7059 92 81.7059C92.8118 81.7059 93.4706 82.3647 93.4706 83.1765V92C93.4706 94.4324 91.4912 96.4118 89.0588 96.4118ZM92 105.235C88.6706 105.235 85.8471 104.1 83.6059 101.865C83.0324 101.288 83.0324 100.359 83.6059 99.7824C84.1824 99.2088 85.1118 99.2088 85.6882 99.7824C87.3765 101.474 89.4412 102.294 92 102.294C94.5588 102.294 96.6235 101.474 98.3118 99.7824C98.8882 99.2088 99.8176 99.2088 100.394 99.7824C100.968 100.359 100.968 101.288 100.394 101.865C98.1529 104.1 95.3294 105.235 92 105.235ZM83.1765 117H77.2941C71.6176 117 67 112.382 67 106.706V100.824C67 100.012 67.6588 99.3529 68.4706 99.3529C69.2824 99.3529 69.9412 100.012 69.9412 100.824V106.706C69.9412 110.762 73.2412 114.059 77.2941 114.059H83.1765C83.9882 114.059 84.6471 114.718 84.6471 115.529C84.6471 116.341 83.9882 117 83.1765 117ZM106.706 117H100.824C100.012 117 99.3529 116.341 99.3529 115.529C99.3529 114.718 100.012 114.059 100.824 114.059H106.706C110.759 114.059 114.059 110.762 114.059 106.706V100.824C114.059 100.012 114.718 99.3529 115.529 99.3529C116.341 99.3529 117 100.012 117 100.824V106.706C117 112.382 112.382 117 106.706 117Z" fill="#5A1186"/>
</svg>
