<svg width="138" height="138" viewBox="0 0 138 138" fill="none" xmlns="http://www.w3.org/2000/svg">
<path d="M33.1778 0C33.6954 0 34.1918 0.205618 34.5578 0.57162C34.9238 0.937622 35.1294 1.43403 35.1294 1.95163C35.1294 2.46924 34.9238 2.96564 34.5578 3.33165C34.1918 3.69765 33.6954 3.90327 33.1778 3.90327H26.9325C22.5296 3.90327 19.3407 3.90327 16.8348 4.11014C14.3523 4.31311 12.7129 4.70734 11.3624 5.39431C8.79093 6.70424 6.70033 8.79484 5.39041 11.3663C4.70734 12.7129 4.31311 14.3523 4.11014 16.8348C3.90327 19.3407 3.90327 22.5296 3.90327 26.9325V33.1778C3.90327 33.6954 3.69765 34.1918 3.33165 34.5578C2.96564 34.9238 2.46924 35.1294 1.95163 35.1294C1.43403 35.1294 0.937622 34.9238 0.57162 34.5578C0.205618 34.1918 0 33.6954 0 33.1778V26.9325C0 22.596 -3.05357e-07 19.2197 0.222486 16.5186C0.444972 13.798 0.897751 11.581 1.9126 9.59032C3.59674 6.28444 6.28444 3.59674 9.59032 1.9126C11.581 0.897751 13.798 0.444972 16.5186 0.222486C19.2197 -3.05357e-07 22.5999 0 26.9325 0H33.1778Z" fill="#5A1186"/>
<path d="M104.452 0.320801C103.935 0.320801 103.438 0.526419 103.072 0.892421C102.706 1.25842 102.5 1.75483 102.5 2.27243C102.5 2.79004 102.706 3.28644 103.072 3.65245C103.438 4.01845 103.935 4.22407 104.452 4.22407H110.697C115.1 4.22407 118.289 4.22407 120.795 4.43094C123.278 4.63391 124.917 5.02814 126.267 5.71511C128.839 7.02504 130.93 9.11564 132.239 11.6871C132.923 13.0337 133.317 14.6731 133.52 17.1556C133.727 19.6615 133.727 22.8504 133.727 27.2533V33.4986C133.727 34.0162 133.932 34.5126 134.298 34.8786C134.664 35.2446 135.161 35.4502 135.678 35.4502C136.196 35.4502 136.692 35.2446 137.058 34.8786C137.424 34.5126 137.63 34.0162 137.63 33.4986V27.2533C137.63 22.9168 137.63 19.5405 137.407 16.8394C137.185 14.1188 136.732 11.9018 135.717 9.91112C134.033 6.60524 131.345 3.91754 128.04 2.2334C126.049 1.21855 123.832 0.765773 121.111 0.543287C118.41 0.3208 115.03 0.320801 110.697 0.320801H104.452Z" fill="#5A1186"/>
<path d="M104.773 137.951C104.256 137.951 103.759 137.745 103.393 137.379C103.027 137.013 102.822 136.517 102.822 135.999C102.822 135.482 103.027 134.985 103.393 134.619C103.759 134.253 104.256 134.048 104.773 134.048H111.019C115.422 134.048 118.61 134.048 121.116 133.841C123.599 133.638 125.238 133.244 126.589 132.557C129.16 131.247 131.251 129.156 132.561 126.585C133.244 125.238 133.638 123.599 133.841 121.116C134.048 118.61 134.048 115.421 134.048 111.019V104.773C134.048 104.256 134.254 103.759 134.62 103.393C134.986 103.027 135.482 102.822 136 102.822C136.517 102.822 137.014 103.027 137.38 103.393C137.746 103.759 137.951 104.256 137.951 104.773V111.019C137.951 115.355 137.951 118.731 137.729 121.432C137.506 124.153 137.053 126.37 136.039 128.361C134.354 131.667 131.667 134.354 128.361 136.038C126.37 137.053 124.153 137.506 121.433 137.729C118.731 137.951 115.351 137.951 111.019 137.951H104.773Z" fill="#5A1186"/>
<path d="M33.499 137.951C34.0166 137.951 34.5131 137.745 34.8791 137.379C35.2451 137.013 35.4507 136.517 35.4507 135.999C35.4507 135.482 35.2451 134.985 34.8791 134.619C34.5131 134.253 34.0166 134.048 33.499 134.048H27.2538C22.8509 134.048 19.662 134.048 17.1561 133.841C14.6736 133.638 13.0342 133.244 11.6837 132.557C9.11222 131.247 7.02162 129.156 5.7117 126.585C5.02863 125.238 4.6344 123.599 4.43143 121.116C4.22455 118.61 4.22455 115.421 4.22455 111.019V104.773C4.22455 104.256 4.01894 103.759 3.65293 103.393C3.28693 103.027 2.79053 102.822 2.27292 102.822C1.75532 102.822 1.25891 103.027 0.892909 103.393C0.526907 103.759 0.321289 104.256 0.321289 104.773V111.019C0.321289 115.355 0.321289 118.731 0.543775 121.432C0.766261 124.153 1.21904 126.37 2.23389 128.361C3.91803 131.667 6.60573 134.354 9.91161 136.038C11.9023 137.053 14.1193 137.506 16.8399 137.729C19.541 137.951 22.9212 137.951 27.2538 137.951H33.499Z" fill="#5A1186"/>
<path d="M68.9752 31.2795C73.974 31.2795 78.7681 33.2653 82.3027 36.8C85.8374 40.3347 87.8232 45.1287 87.8232 50.1275C87.8232 55.1263 85.8374 59.9203 82.3027 63.455C78.7681 66.9897 73.974 68.9755 68.9752 68.9755C63.9764 68.9755 59.1824 66.9897 55.6477 63.455C52.113 59.9203 50.1273 55.1263 50.1273 50.1275C50.1273 45.1287 52.113 40.3347 55.6477 36.8C59.1824 33.2653 63.9764 31.2795 68.9752 31.2795ZM68.9752 78.3994C89.8022 78.3994 106.671 86.8339 106.671 97.2474V106.671H31.2793V97.2474C31.2793 86.8339 48.1482 78.3994 68.9752 78.3994Z" fill="#5A1186"/>
</svg>
